<?xml version="1.0" encoding="UTF-8"?>
<svg viewBox="0 0 1151.5131 1151.5131" xmlns="http://www.w3.org/2000/svg">
 <defs>
  <radialGradient id="a" cx="395.21" cy="431.65" r="543.36" gradientTransform="matrix(1.283 .96838 -.60244 .79817 58.704 -383.59)" gradientUnits="userSpaceOnUse">
   <stop stop-color="#bee57c" offset="0"/>
   <stop stop-color="#a6d904" offset="1"/>
  </radialGradient>
 </defs>
 <g transform="translate(186.8 -41.127)" fill-rule="evenodd">
  <path transform="matrix(1.0578 0 0 1.0578 65.559 20.482)" d="m848.57 563.79a542.86 542.86 0 1 1 -1085.7 0 542.86 542.86 0 1 1 1085.7 0z" fill="url(#a)" stroke="#477000" stroke-width="2.836"/>
  <path d="m0.52462 1040.4c-14.061-11.708-24.166-23.856-36.029-36.444 58.095 0.9524 101.12-13.624 153.51-49.815 43.81-27.619 100.79-190.47 78.89-338.09-14.286-126.67-40.207-102.58-70.792-293.44-13.333-73.333 0.32492-174.74 101.28-256.65 27.589-7.7989 38.912-10.762 84.087-18.121-168.1 114.24-149.43 208.11-138.58 281.44 5.7143 103.81 61.48 156.83 75.766 288.47 21.905 152.59-46.662 336.66-90.472 364.28-52.381 36.19-99.554 59.321-157.65 58.369z" fill="#f7f7f7"/>
  <path d="m840.05 261.16c14.163 16.441 22.036 27.491 34.402 47.527 12.308 144.81 17.427 268.06-16.992 387.71-45.736 129.34-143.59 282.04-131.82 323.32-1.1073 19.897-2.2146 40.692 7.4612 59.69-10.777 4.9741-20.656 13.543-31.433 18.517-6.151-22.453-7.8091-46.704-5.8728-68.258 11.183-81.94 42.135-144.11 82.074-218.86 25.288-50.571 39.793-101.14 59.69-151.71 24.192-75.134 23.224-197 2.4871-397.93z" fill="#f7f7f7"/>
 </g>
</svg>
